<?xml version="1.0" encoding="UTF-8" standalone="no"?>
<svg
   xmlns:dc="http://purl.org/dc/elements/1.1/"
   xmlns:cc="http://creativecommons.org/ns#"
   xmlns:rdf="http://www.w3.org/1999/02/22-rdf-syntax-ns#"
   xmlns:svg="http://www.w3.org/2000/svg"
   xmlns="http://www.w3.org/2000/svg"
   xmlns:sodipodi="http://sodipodi.sourceforge.net/DTD/sodipodi-0.dtd"
   xmlns:inkscape="http://www.inkscape.org/namespaces/inkscape"
   enable-background="new 0 0 24 24"
   height="24"
   viewBox="0 0 24 24"
   width="24"
   version="1.1"
   id="svg14"
   sodipodi:docname="fag.svg"
   inkscape:version="0.92.3 (2405546, 2018-03-11)">
  <metadata
     id="metadata20">
    <rdf:RDF>
      <cc:Work
         rdf:about="">
        <dc:format>image/svg+xml</dc:format>
        <dc:type
           rdf:resource="http://purl.org/dc/dcmitype/StillImage" />
      </cc:Work>
    </rdf:RDF>
  </metadata>
  <defs
     id="defs18" />
  <sodipodi:namedview
     pagecolor="#ffffff"
     bordercolor="#666666"
     borderopacity="1"
     objecttolerance="10"
     gridtolerance="10"
     guidetolerance="10"
     inkscape:pageopacity="0"
     inkscape:pageshadow="2"
     inkscape:window-width="640"
     inkscape:window-height="480"
     id="namedview16"
     showgrid="false"
     inkscape:zoom="9.8333333"
     inkscape:cx="10.220339"
     inkscape:cy="12"
     inkscape:window-x="0"
     inkscape:window-y="0"
     inkscape:window-maximized="0"
     inkscape:current-layer="svg14" />
  <g
     id="g4">
    <rect
       fill="none"
       height="24"
       width="24"
       id="rect2" />
  </g>
  <g
     id="g12"
     style="fill:#ffffff">
    <g
       id="g10"
       style="fill:#ffffff">
      <g
         id="g8"
         style="fill:#ffffff">
        <path
           d="M23,8c0,1.1-0.9,2-2,2c-0.18,0-0.35-0.02-0.51-0.07l-3.56,3.55C16.98,13.64,17,13.82,17,14c0,1.1-0.9,2-2,2s-2-0.9-2-2 c0-0.18,0.02-0.36,0.07-0.52l-2.55-2.55C10.36,10.98,10.18,11,10,11s-0.36-0.02-0.52-0.07l-4.55,4.56C4.98,15.65,5,15.82,5,16 c0,1.1-0.9,2-2,2s-2-0.9-2-2s0.9-2,2-2c0.18,0,0.35,0.02,0.51,0.07l4.56-4.55C8.02,9.36,8,9.18,8,9c0-1.1,0.9-2,2-2s2,0.9,2,2 c0,0.18-0.02,0.36-0.07,0.52l2.55,2.55C14.64,12.02,14.82,12,15,12s0.36,0.02,0.52,0.07l3.55-3.56C19.02,8.35,19,8.18,19,8 c0-1.1,0.9-2,2-2S23,6.9,23,8z"
           id="path6"
           style="fill:#ffffff" />
      </g>
    </g>
  </g>
</svg>
